# xmcd CD database file
#
# Track frame offsets:
#	150
#	32928
#	48986
#	73233
#	85895
#	111277
#	144300
#	159017
#	171659
#	188207
#	199255
#	216951
#	246350
#	268267
#	279800
#	303623
#
# Disc length: 4370 seconds
#
# Revision: 2
# Processed by: cddbd v1.4b41PL1 Copyright (c) Steve Scherf et al.
# Submitted via: Feurio! 1.60 - http://www.feurio.com
#
DISCID=f1111010,f5111010
DTITLE=Andreas Vollenweider - The Essential Andreas Vollenweider
DYEAR=1900
DGENRE=
TTITLE0=Behind the Gardens, behind the Wall, under the Tree
TTITLE1=Flight Feet and Root Hands
TTITLE2=Belladonna
TTITLE3=Angoh
TTITLE4=The Play of the five Balls
TTITLE5=Pyramid
TTITLE6=Pearls and Tears
TTITLE7=See, my Love
TTITLE8=Moon Dance
TTITLE9=Passage to promise
TTITLE10=Dancing with the Lion
TTITLE11=Wanja the Wanderer
TTITLE12=Night Fire Dance
TTITLE13=Cor do Amor
TTITLE14=Stella
TTITLE15=Pace Verde
EXTD=
EXTT0=
EXTT1=
EXTT2=
EXTT3=
EXTT4=
EXTT5=
EXTT6=
EXTT7=
EXTT8=
EXTT9=
EXTT10=
EXTT11=
EXTT12=
EXTT13=
EXTT14=
EXTT15=
PLAYORDER=
